<svg width="320" height="265" viewBox="0 0 320 265" fill="none" xmlns="http://www.w3.org/2000/svg">
<rect width="320" height="265" fill="#D9D9D9"/>
<rect width="196" height="66" fill="#58216B"/>
<rect y="133" width="196" height="67" fill="#4B1049"/>
<path d="M0 66H96V133H0V66Z" fill="#893131"/>
<rect x="96" y="66" width="100" height="67" fill="#791717"/>
<rect x="196" width="124" height="66" fill="#5B4B11"/>
<rect x="196" y="66" width="124" height="67" fill="#6A872B"/>
<rect x="196" y="133" width="124" height="66" fill="#167637"/>
<rect x="196" y="199" width="124" height="66" fill="#1C7070"/>
<rect x="99" y="199" width="97" height="66" fill="#9E388E"/>
<rect y="199" width="99" height="66" fill="#BA1A1A"/>
<path d="M95.7841 30.2727H96.8409V36.0511C96.8409 36.6477 96.7003 37.1804 96.419 37.6491C96.1406 38.1151 95.7472 38.483 95.2386 38.7528C94.7301 39.0199 94.1335 39.1534 93.4489 39.1534C92.7642 39.1534 92.1676 39.0199 91.6591 38.7528C91.1506 38.483 90.7557 38.1151 90.4744 37.6491C90.196 37.1804 90.0568 36.6477 90.0568 36.0511V30.2727H91.1136V35.9659C91.1136 36.392 91.2074 36.7713 91.3949 37.1037C91.5824 37.4332 91.8494 37.6932 92.196 37.8835C92.5455 38.071 92.9631 38.1648 93.4489 38.1648C93.9347 38.1648 94.3523 38.071 94.7017 37.8835C95.0511 37.6932 95.3182 37.4332 95.5028 37.1037C95.6903 36.7713 95.7841 36.392 95.7841 35.9659V30.2727ZM98.815 41.4545V32.4545H99.7866V33.4943H99.9059C99.9798 33.3807 100.082 33.2358 100.213 33.0597C100.346 32.8807 100.537 32.7216 100.784 32.5824C101.034 32.4403 101.372 32.3693 101.798 32.3693C102.349 32.3693 102.835 32.5071 103.255 32.7827C103.676 33.0582 104.004 33.4489 104.24 33.9545C104.475 34.4602 104.593 35.0568 104.593 35.7443C104.593 36.4375 104.475 37.0384 104.24 37.5469C104.004 38.0526 103.677 38.4446 103.26 38.723C102.842 38.9986 102.36 39.1364 101.815 39.1364C101.395 39.1364 101.058 39.0668 100.805 38.9276C100.552 38.7855 100.358 38.625 100.221 38.446C100.085 38.2642 99.9798 38.1136 99.9059 37.9943H99.8207V41.4545H98.815ZM99.8036 35.7273C99.8036 36.2216 99.8761 36.6577 100.021 37.0355C100.166 37.4105 100.377 37.7045 100.656 37.9176C100.934 38.1278 101.275 38.233 101.679 38.233C102.099 38.233 102.45 38.1222 102.731 37.9006C103.015 37.6761 103.228 37.375 103.37 36.9972C103.515 36.6165 103.588 36.1932 103.588 35.7273C103.588 35.267 103.517 34.8523 103.375 34.483C103.235 34.1108 103.024 33.8168 102.74 33.6009C102.458 33.3821 102.105 33.2727 101.679 33.2727C101.27 33.2727 100.926 33.3764 100.647 33.5838C100.369 33.7884 100.159 34.0753 100.017 34.4446C99.8746 34.8111 99.8036 35.2386 99.8036 35.7273Z" fill="white"/>
<path d="M82.75 177H80.0568V168.273H82.8693C83.7159 168.273 84.4403 168.447 85.0426 168.797C85.6449 169.143 86.1065 169.642 86.4276 170.293C86.7486 170.94 86.9091 171.716 86.9091 172.619C86.9091 173.528 86.7472 174.311 86.4233 174.967C86.0994 175.621 85.6278 176.124 85.0085 176.476C84.3892 176.825 83.6364 177 82.75 177ZM81.1136 176.062H82.6818C83.4034 176.062 84.0014 175.923 84.4759 175.645C84.9503 175.366 85.304 174.97 85.5369 174.456C85.7699 173.942 85.8864 173.33 85.8864 172.619C85.8864 171.915 85.7713 171.308 85.5412 170.8C85.3111 170.288 84.9673 169.896 84.5099 169.624C84.0526 169.348 83.483 169.21 82.8011 169.21H81.1136V176.062ZM91.2045 177.136C90.6136 177.136 90.0952 176.996 89.6491 176.714C89.206 176.433 88.8594 176.04 88.6094 175.534C88.3622 175.028 88.2386 174.437 88.2386 173.761C88.2386 173.08 88.3622 172.484 88.6094 171.976C88.8594 171.467 89.206 171.072 89.6491 170.791C90.0952 170.51 90.6136 170.369 91.2045 170.369C91.7955 170.369 92.3125 170.51 92.7557 170.791C93.2017 171.072 93.5483 171.467 93.7955 171.976C94.0455 172.484 94.1705 173.08 94.1705 173.761C94.1705 174.437 94.0455 175.028 93.7955 175.534C93.5483 176.04 93.2017 176.433 92.7557 176.714C92.3125 176.996 91.7955 177.136 91.2045 177.136ZM91.2045 176.233C91.6534 176.233 92.0227 176.118 92.3125 175.888C92.6023 175.658 92.8168 175.355 92.956 174.98C93.0952 174.605 93.1648 174.199 93.1648 173.761C93.1648 173.324 93.0952 172.916 92.956 172.538C92.8168 172.161 92.6023 171.855 92.3125 171.622C92.0227 171.389 91.6534 171.273 91.2045 171.273C90.7557 171.273 90.3864 171.389 90.0966 171.622C89.8068 171.855 89.5923 172.161 89.4531 172.538C89.3139 172.916 89.2443 173.324 89.2443 173.761C89.2443 174.199 89.3139 174.605 89.4531 174.98C89.5923 175.355 89.8068 175.658 90.0966 175.888C90.3864 176.118 90.7557 176.233 91.2045 176.233ZM96.9659 177L94.9716 170.455H96.0284L97.4432 175.466H97.5114L98.9091 170.455H99.983L101.364 175.449H101.432L102.847 170.455H103.903L101.909 177H100.92L99.4886 171.972H99.3864L97.9545 177H96.9659ZM106.239 173.062V177H105.233V170.455H106.205V171.477H106.29C106.443 171.145 106.676 170.878 106.989 170.676C107.301 170.472 107.705 170.369 108.199 170.369C108.642 170.369 109.03 170.46 109.362 170.642C109.695 170.821 109.953 171.094 110.138 171.46C110.322 171.824 110.415 172.284 110.415 172.841V177H109.409V172.909C109.409 172.395 109.276 171.994 109.009 171.707C108.741 171.418 108.375 171.273 107.909 171.273C107.588 171.273 107.301 171.342 107.048 171.482C106.798 171.621 106.601 171.824 106.456 172.091C106.311 172.358 106.239 172.682 106.239 173.062Z" fill="white"/>
<path d="M37.0568 104V95.2727H38.1136V103.062H42.1705V104H37.0568ZM46.4148 104.136C45.7841 104.136 45.2401 103.997 44.7827 103.719C44.3281 103.438 43.9773 103.045 43.7301 102.543C43.4858 102.037 43.3636 101.449 43.3636 100.778C43.3636 100.108 43.4858 99.517 43.7301 99.0057C43.9773 98.4915 44.321 98.0909 44.7614 97.804C45.2045 97.5142 45.7216 97.3693 46.3125 97.3693C46.6534 97.3693 46.9901 97.4261 47.3224 97.5398C47.6548 97.6534 47.9574 97.8381 48.2301 98.0938C48.5028 98.3466 48.7202 98.6818 48.8821 99.0994C49.044 99.517 49.125 100.031 49.125 100.642V101.068H44.0795V100.199H48.1023C48.1023 99.8295 48.0284 99.5 47.8807 99.2102C47.7358 98.9205 47.5284 98.6918 47.2585 98.5241C46.9915 98.3565 46.6761 98.2727 46.3125 98.2727C45.9119 98.2727 45.5653 98.3722 45.2727 98.571C44.983 98.767 44.7599 99.0227 44.6037 99.3381C44.4474 99.6534 44.3693 99.9915 44.3693 100.352V100.932C44.3693 101.426 44.4545 101.845 44.625 102.189C44.7983 102.53 45.0384 102.79 45.3452 102.969C45.652 103.145 46.0085 103.233 46.4148 103.233C46.679 103.233 46.9176 103.196 47.1307 103.122C47.3466 103.045 47.5327 102.932 47.6889 102.781C47.8452 102.628 47.9659 102.437 48.0511 102.21L49.0227 102.483C48.9205 102.812 48.7486 103.102 48.5071 103.352C48.2656 103.599 47.9673 103.793 47.6122 103.932C47.2571 104.068 46.858 104.136 46.4148 104.136ZM53.5696 97.4545V98.3068H50.0412V97.4545H53.5696ZM51.098 104V96.5511C51.098 96.1761 51.1861 95.8636 51.3622 95.6136C51.5384 95.3636 51.767 95.1761 52.0483 95.0511C52.3295 94.9261 52.6264 94.8636 52.9389 94.8636C53.1861 94.8636 53.3878 94.8835 53.544 94.9233C53.7003 94.9631 53.8168 95 53.8935 95.0341L53.6037 95.9034C53.5526 95.8864 53.4815 95.8651 53.3906 95.8395C53.3026 95.8139 53.1861 95.8011 53.0412 95.8011C52.7088 95.8011 52.4688 95.8849 52.321 96.0526C52.1761 96.2202 52.1037 96.4659 52.1037 96.7898V104H51.098ZM57.8256 97.4545V98.3068H54.4336V97.4545H57.8256ZM55.4222 95.8864H56.4279V102.125C56.4279 102.409 56.4691 102.622 56.5515 102.764C56.6367 102.903 56.7447 102.997 56.8754 103.045C57.0089 103.091 57.1495 103.114 57.2972 103.114C57.408 103.114 57.4989 103.108 57.57 103.097C57.641 103.082 57.6978 103.071 57.7404 103.062L57.945 103.966C57.8768 103.991 57.7816 104.017 57.6594 104.043C57.5373 104.071 57.3825 104.085 57.195 104.085C56.9109 104.085 56.6325 104.024 56.3597 103.902C56.0898 103.78 55.8654 103.594 55.6864 103.344C55.5103 103.094 55.4222 102.778 55.4222 102.398V95.8864Z" fill="white"/>
<path d="M131.057 104V95.2727H134.006C134.688 95.2727 135.247 95.3892 135.685 95.6222C136.122 95.8523 136.446 96.169 136.656 96.5724C136.866 96.9759 136.972 97.4347 136.972 97.9489C136.972 98.4631 136.866 98.919 136.656 99.3168C136.446 99.7145 136.124 100.027 135.689 100.254C135.254 100.479 134.699 100.591 134.023 100.591H131.636V99.6364H133.989C134.455 99.6364 134.83 99.5682 135.114 99.4318C135.401 99.2955 135.608 99.1023 135.736 98.8523C135.866 98.5994 135.932 98.2983 135.932 97.9489C135.932 97.5994 135.866 97.294 135.736 97.0327C135.605 96.7713 135.396 96.5696 135.109 96.4276C134.822 96.2827 134.443 96.2102 133.972 96.2102H132.114V104H131.057ZM135.165 100.08L137.312 104H136.085L133.972 100.08H135.165ZM138.596 104V97.4545H139.602V104H138.596ZM139.108 96.3636C138.912 96.3636 138.743 96.2969 138.6 96.1634C138.461 96.0298 138.392 95.8693 138.392 95.6818C138.392 95.4943 138.461 95.3338 138.6 95.2003C138.743 95.0668 138.912 95 139.108 95C139.304 95 139.471 95.0668 139.61 95.2003C139.752 95.3338 139.824 95.4943 139.824 95.6818C139.824 95.8693 139.752 96.0298 139.61 96.1634C139.471 96.2969 139.304 96.3636 139.108 96.3636ZM144.086 106.591C143.6 106.591 143.183 106.528 142.833 106.403C142.484 106.281 142.192 106.119 141.96 105.918C141.729 105.719 141.546 105.506 141.41 105.278L142.211 104.716C142.302 104.835 142.417 104.972 142.556 105.125C142.695 105.281 142.886 105.416 143.127 105.53C143.371 105.646 143.691 105.705 144.086 105.705C144.614 105.705 145.05 105.577 145.394 105.321C145.738 105.065 145.91 104.665 145.91 104.119V102.79H145.825C145.751 102.909 145.646 103.057 145.509 103.233C145.376 103.406 145.183 103.561 144.93 103.697C144.68 103.831 144.342 103.898 143.915 103.898C143.387 103.898 142.913 103.773 142.492 103.523C142.075 103.273 141.744 102.909 141.499 102.432C141.258 101.955 141.137 101.375 141.137 100.693C141.137 100.023 141.255 99.4389 141.491 98.9418C141.727 98.4418 142.055 98.0554 142.475 97.7827C142.896 97.5071 143.381 97.3693 143.933 97.3693C144.359 97.3693 144.697 97.4403 144.947 97.5824C145.2 97.7216 145.393 97.8807 145.526 98.0597C145.663 98.2358 145.768 98.3807 145.842 98.4943H145.944V97.4545H146.915V104.188C146.915 104.75 146.788 105.207 146.532 105.56C146.279 105.915 145.938 106.175 145.509 106.339C145.083 106.507 144.609 106.591 144.086 106.591ZM144.052 102.994C144.455 102.994 144.796 102.902 145.075 102.717C145.353 102.533 145.565 102.267 145.71 101.92C145.854 101.574 145.927 101.159 145.927 100.676C145.927 100.205 145.856 99.7884 145.714 99.4276C145.572 99.0668 145.362 98.7841 145.083 98.5795C144.805 98.375 144.461 98.2727 144.052 98.2727C143.626 98.2727 143.271 98.3807 142.987 98.5966C142.705 98.8125 142.494 99.1023 142.352 99.4659C142.212 99.8295 142.143 100.233 142.143 100.676C142.143 101.131 142.214 101.533 142.356 101.882C142.501 102.229 142.714 102.501 142.995 102.7C143.279 102.896 143.631 102.994 144.052 102.994ZM149.762 100.062V104H148.756V95.2727H149.762V98.4773H149.847C150.001 98.1392 150.231 97.8707 150.538 97.6719C150.847 97.4702 151.259 97.3693 151.773 97.3693C152.219 97.3693 152.61 97.4588 152.945 97.6378C153.281 97.8139 153.54 98.0852 153.725 98.4517C153.913 98.8153 154.006 99.2784 154.006 99.8409V104H153.001V99.9091C153.001 99.3892 152.866 98.9872 152.596 98.7031C152.329 98.4162 151.958 98.2727 151.484 98.2727C151.154 98.2727 150.859 98.3423 150.597 98.4815C150.339 98.6207 150.134 98.8239 149.984 99.0909C149.836 99.358 149.762 99.6818 149.762 100.062ZM158.693 97.4545V98.3068H155.301V97.4545H158.693ZM156.289 95.8864H157.295V102.125C157.295 102.409 157.336 102.622 157.419 102.764C157.504 102.903 157.612 102.997 157.743 103.045C157.876 103.091 158.017 103.114 158.164 103.114C158.275 103.114 158.366 103.108 158.437 103.097C158.508 103.082 158.565 103.071 158.608 103.062L158.812 103.966C158.744 103.991 158.649 104.017 158.527 104.043C158.404 104.071 158.25 104.085 158.062 104.085C157.778 104.085 157.5 104.024 157.227 103.902C156.957 103.78 156.733 103.594 156.554 103.344C156.377 103.094 156.289 102.778 156.289 102.398V95.8864Z" fill="white"/>
<path d="M136.83 228.455C136.778 228.023 136.571 227.688 136.207 227.449C135.844 227.21 135.398 227.091 134.869 227.091C134.483 227.091 134.145 227.153 133.855 227.278C133.568 227.403 133.344 227.575 133.182 227.794C133.023 228.013 132.943 228.261 132.943 228.54C132.943 228.773 132.999 228.973 133.109 229.141C133.223 229.305 133.368 229.443 133.544 229.554C133.72 229.662 133.905 229.751 134.098 229.822C134.291 229.891 134.469 229.946 134.631 229.989L135.517 230.227C135.744 230.287 135.997 230.369 136.276 230.474C136.557 230.58 136.825 230.723 137.081 230.905C137.339 231.084 137.553 231.314 137.72 231.595C137.888 231.876 137.972 232.222 137.972 232.631C137.972 233.102 137.848 233.528 137.601 233.909C137.357 234.29 136.999 234.592 136.527 234.817C136.058 235.041 135.489 235.153 134.818 235.153C134.193 235.153 133.652 235.053 133.195 234.851C132.74 234.649 132.382 234.368 132.121 234.007C131.862 233.646 131.716 233.227 131.682 232.75H132.773C132.801 233.08 132.912 233.352 133.105 233.568C133.301 233.781 133.548 233.94 133.847 234.045C134.148 234.148 134.472 234.199 134.818 234.199C135.222 234.199 135.584 234.134 135.905 234.003C136.226 233.869 136.48 233.685 136.668 233.449C136.855 233.21 136.949 232.932 136.949 232.614C136.949 232.324 136.868 232.088 136.706 231.906C136.544 231.724 136.331 231.577 136.067 231.463C135.803 231.349 135.517 231.25 135.21 231.165L134.136 230.858C133.455 230.662 132.915 230.382 132.517 230.018C132.119 229.655 131.92 229.179 131.92 228.591C131.92 228.102 132.053 227.676 132.317 227.312C132.584 226.946 132.942 226.662 133.391 226.46C133.842 226.256 134.347 226.153 134.903 226.153C135.466 226.153 135.966 226.254 136.403 226.456C136.841 226.655 137.188 226.928 137.443 227.274C137.702 227.621 137.838 228.014 137.852 228.455H136.83ZM142.419 228.455V229.307H139.027V228.455H142.419ZM140.016 226.886H141.022V233.125C141.022 233.409 141.063 233.622 141.145 233.764C141.23 233.903 141.338 233.997 141.469 234.045C141.603 234.091 141.743 234.114 141.891 234.114C142.002 234.114 142.093 234.108 142.164 234.097C142.235 234.082 142.292 234.071 142.334 234.062L142.539 234.966C142.471 234.991 142.375 235.017 142.253 235.043C142.131 235.071 141.976 235.085 141.789 235.085C141.505 235.085 141.226 235.024 140.953 234.902C140.684 234.78 140.459 234.594 140.28 234.344C140.104 234.094 140.016 233.778 140.016 233.398V226.886ZM145.858 235.153C145.444 235.153 145.067 235.075 144.729 234.919C144.391 234.76 144.123 234.531 143.924 234.233C143.725 233.932 143.625 233.568 143.625 233.142C143.625 232.767 143.699 232.463 143.847 232.23C143.995 231.994 144.192 231.81 144.439 231.676C144.686 231.543 144.959 231.443 145.257 231.378C145.559 231.31 145.861 231.256 146.165 231.216C146.563 231.165 146.885 231.126 147.132 231.101C147.382 231.072 147.564 231.026 147.678 230.96C147.794 230.895 147.853 230.781 147.853 230.619V230.585C147.853 230.165 147.738 229.838 147.507 229.605C147.28 229.372 146.935 229.256 146.472 229.256C145.992 229.256 145.615 229.361 145.343 229.571C145.07 229.781 144.878 230.006 144.767 230.244L143.813 229.903C143.983 229.506 144.211 229.196 144.495 228.974C144.782 228.75 145.094 228.594 145.432 228.506C145.773 228.415 146.108 228.369 146.438 228.369C146.648 228.369 146.89 228.395 147.162 228.446C147.438 228.494 147.703 228.595 147.959 228.749C148.218 228.902 148.432 229.134 148.603 229.443C148.773 229.753 148.858 230.168 148.858 230.688V235H147.853V234.114H147.801C147.733 234.256 147.62 234.408 147.461 234.57C147.301 234.732 147.09 234.869 146.826 234.983C146.561 235.097 146.239 235.153 145.858 235.153ZM146.012 234.25C146.409 234.25 146.745 234.172 147.017 234.016C147.293 233.859 147.5 233.658 147.64 233.411C147.782 233.163 147.853 232.903 147.853 232.631V231.71C147.81 231.761 147.716 231.808 147.571 231.851C147.429 231.891 147.265 231.926 147.077 231.957C146.892 231.986 146.712 232.011 146.536 232.034C146.363 232.054 146.222 232.071 146.114 232.085C145.853 232.119 145.608 232.175 145.381 232.251C145.157 232.325 144.975 232.437 144.836 232.588C144.699 232.736 144.631 232.937 144.631 233.193C144.631 233.543 144.76 233.807 145.019 233.986C145.28 234.162 145.611 234.25 146.012 234.25ZM150.694 235V228.455H151.665V229.443H151.734C151.853 229.119 152.069 228.857 152.381 228.655C152.694 228.453 153.046 228.352 153.438 228.352C153.512 228.352 153.604 228.354 153.715 228.357C153.826 228.359 153.91 228.364 153.967 228.369V229.392C153.933 229.384 153.854 229.371 153.732 229.354C153.613 229.334 153.487 229.324 153.353 229.324C153.035 229.324 152.751 229.391 152.501 229.524C152.254 229.655 152.058 229.837 151.913 230.07C151.771 230.3 151.7 230.562 151.7 230.858V235H150.694ZM158.415 228.455V229.307H155.023V228.455H158.415ZM156.012 226.886H157.018V233.125C157.018 233.409 157.059 233.622 157.141 233.764C157.227 233.903 157.335 233.997 157.465 234.045C157.599 234.091 157.739 234.114 157.887 234.114C157.998 234.114 158.089 234.108 158.16 234.097C158.231 234.082 158.288 234.071 158.33 234.062L158.535 234.966C158.467 234.991 158.371 235.017 158.249 235.043C158.127 235.071 157.972 235.085 157.785 235.085C157.501 235.085 157.222 235.024 156.95 234.902C156.68 234.78 156.455 234.594 156.276 234.344C156.1 234.094 156.012 233.778 156.012 233.398V226.886Z" fill="white"/>
<path d="M33.8295 231.455C33.7784 231.023 33.571 230.688 33.2074 230.449C32.8438 230.21 32.3977 230.091 31.8693 230.091C31.483 230.091 31.1449 230.153 30.8551 230.278C30.5682 230.403 30.3438 230.575 30.1818 230.794C30.0227 231.013 29.9432 231.261 29.9432 231.54C29.9432 231.773 29.9986 231.973 30.1094 232.141C30.223 232.305 30.3679 232.443 30.544 232.554C30.7202 232.662 30.9048 232.751 31.098 232.822C31.2912 232.891 31.4688 232.946 31.6307 232.989L32.517 233.227C32.7443 233.287 32.9972 233.369 33.2756 233.474C33.5568 233.58 33.8253 233.723 34.081 233.905C34.3395 234.084 34.5526 234.314 34.7202 234.595C34.8878 234.876 34.9716 235.222 34.9716 235.631C34.9716 236.102 34.848 236.528 34.6009 236.909C34.3565 237.29 33.9986 237.592 33.527 237.817C33.0582 238.041 32.4886 238.153 31.8182 238.153C31.1932 238.153 30.652 238.053 30.1946 237.851C29.7401 237.649 29.3821 237.368 29.1207 237.007C28.8622 236.646 28.7159 236.227 28.6818 235.75H29.7727C29.8011 236.08 29.9119 236.352 30.1051 236.568C30.3011 236.781 30.5483 236.94 30.8466 237.045C31.1477 237.148 31.4716 237.199 31.8182 237.199C32.2216 237.199 32.5838 237.134 32.9048 237.003C33.2259 236.869 33.4801 236.685 33.6676 236.449C33.8551 236.21 33.9489 235.932 33.9489 235.614C33.9489 235.324 33.8679 235.088 33.706 234.906C33.544 234.724 33.331 234.577 33.0668 234.463C32.8026 234.349 32.517 234.25 32.2102 234.165L31.1364 233.858C30.4545 233.662 29.9148 233.382 29.517 233.018C29.1193 232.655 28.9205 232.179 28.9205 231.591C28.9205 231.102 29.0526 230.676 29.3168 230.312C29.5838 229.946 29.9418 229.662 30.3906 229.46C30.8423 229.256 31.3466 229.153 31.9034 229.153C32.4659 229.153 32.9659 229.254 33.4034 229.456C33.8409 229.655 34.1875 229.928 34.4432 230.274C34.7017 230.621 34.8381 231.014 34.8523 231.455H33.8295ZM39.3171 238.136C38.6864 238.136 38.1424 237.997 37.685 237.719C37.2305 237.438 36.8796 237.045 36.6325 236.543C36.3881 236.037 36.266 235.449 36.266 234.778C36.266 234.108 36.3881 233.517 36.6325 233.006C36.8796 232.491 37.2234 232.091 37.6637 231.804C38.1069 231.514 38.6239 231.369 39.2148 231.369C39.5558 231.369 39.8924 231.426 40.2248 231.54C40.5572 231.653 40.8597 231.838 41.1325 232.094C41.4052 232.347 41.6225 232.682 41.7844 233.099C41.9464 233.517 42.0273 234.031 42.0273 234.642V235.068H36.9819V234.199H41.0046C41.0046 233.83 40.9308 233.5 40.783 233.21C40.6381 232.92 40.4308 232.692 40.1609 232.524C39.8938 232.357 39.5785 232.273 39.2148 232.273C38.8143 232.273 38.4677 232.372 38.1751 232.571C37.8853 232.767 37.6623 233.023 37.506 233.338C37.3498 233.653 37.2717 233.991 37.2717 234.352V234.932C37.2717 235.426 37.3569 235.845 37.5273 236.189C37.7006 236.53 37.9407 236.79 38.2475 236.969C38.5543 237.145 38.9109 237.233 39.3171 237.233C39.5813 237.233 39.82 237.196 40.033 237.122C40.2489 237.045 40.435 236.932 40.5913 236.781C40.7475 236.628 40.8683 236.437 40.9535 236.21L41.9251 236.483C41.8228 236.812 41.6509 237.102 41.4094 237.352C41.168 237.599 40.8697 237.793 40.5146 237.932C40.1594 238.068 39.7603 238.136 39.3171 238.136ZM44.5629 229.273V238H43.5572V229.273H44.5629ZM49.1491 238.136C48.5185 238.136 47.9744 237.997 47.517 237.719C47.0625 237.438 46.7116 237.045 46.4645 236.543C46.2202 236.037 46.098 235.449 46.098 234.778C46.098 234.108 46.2202 233.517 46.4645 233.006C46.7116 232.491 47.0554 232.091 47.4957 231.804C47.9389 231.514 48.456 231.369 49.0469 231.369C49.3878 231.369 49.7244 231.426 50.0568 231.54C50.3892 231.653 50.6918 231.838 50.9645 232.094C51.2372 232.347 51.4545 232.682 51.6165 233.099C51.7784 233.517 51.8594 234.031 51.8594 234.642V235.068H46.8139V234.199H50.8366C50.8366 233.83 50.7628 233.5 50.6151 233.21C50.4702 232.92 50.2628 232.692 49.9929 232.524C49.7259 232.357 49.4105 232.273 49.0469 232.273C48.6463 232.273 48.2997 232.372 48.0071 232.571C47.7173 232.767 47.4943 233.023 47.3381 233.338C47.1818 233.653 47.1037 233.991 47.1037 234.352V234.932C47.1037 235.426 47.1889 235.845 47.3594 236.189C47.5327 236.53 47.7727 236.79 48.0795 236.969C48.3864 237.145 48.7429 237.233 49.1491 237.233C49.4134 237.233 49.652 237.196 49.8651 237.122C50.081 237.045 50.267 236.932 50.4233 236.781C50.5795 236.628 50.7003 236.437 50.7855 236.21L51.7571 236.483C51.6548 236.812 51.483 237.102 51.2415 237.352C51 237.599 50.7017 237.793 50.3466 237.932C49.9915 238.068 49.5923 238.136 49.1491 238.136ZM56.0483 238.136C55.4347 238.136 54.9063 237.991 54.4631 237.702C54.0199 237.412 53.679 237.013 53.4403 236.504C53.2017 235.996 53.0824 235.415 53.0824 234.761C53.0824 234.097 53.2045 233.51 53.4489 233.001C53.696 232.49 54.0398 232.091 54.4801 231.804C54.9233 231.514 55.4403 231.369 56.0312 231.369C56.4915 231.369 56.9062 231.455 57.2756 231.625C57.6449 231.795 57.9474 232.034 58.1832 232.341C58.419 232.648 58.5653 233.006 58.6222 233.415H57.6165C57.5398 233.116 57.3693 232.852 57.1051 232.622C56.8438 232.389 56.4915 232.273 56.0483 232.273C55.6563 232.273 55.3125 232.375 55.017 232.58C54.7244 232.781 54.4957 233.067 54.331 233.436C54.169 233.803 54.0881 234.233 54.0881 234.727C54.0881 235.233 54.1676 235.673 54.3267 236.048C54.4886 236.423 54.7159 236.714 55.0085 236.922C55.304 237.129 55.6506 237.233 56.0483 237.233C56.3097 237.233 56.5469 237.188 56.7599 237.097C56.973 237.006 57.1534 236.875 57.3011 236.705C57.4489 236.534 57.554 236.33 57.6165 236.091H58.6222C58.5653 236.477 58.4247 236.825 58.2003 237.135C57.9787 237.442 57.6847 237.686 57.3182 237.868C56.9545 238.047 56.5313 238.136 56.0483 238.136ZM62.9389 231.455V232.307H59.5469V231.455H62.9389ZM60.5355 229.886H61.5412V236.125C61.5412 236.409 61.5824 236.622 61.6648 236.764C61.75 236.903 61.858 236.997 61.9886 237.045C62.1222 237.091 62.2628 237.114 62.4105 237.114C62.5213 237.114 62.6122 237.108 62.6832 237.097C62.7543 237.082 62.8111 237.071 62.8537 237.062L63.0582 237.966C62.9901 237.991 62.8949 238.017 62.7727 238.043C62.6506 238.071 62.4957 238.085 62.3082 238.085C62.0241 238.085 61.7457 238.024 61.473 237.902C61.2031 237.78 60.9787 237.594 60.7997 237.344C60.6236 237.094 60.5355 236.778 60.5355 236.398V229.886Z" fill="white"/>
<path d="M254.415 36H253.307L256.511 27.2727H257.602L260.807 36H259.699L257.091 28.6534H257.023L254.415 36ZM254.824 32.5909H259.29V33.5284H254.824V32.5909Z" fill="white"/>
<path d="M255.057 101V92.2727H258.108C258.716 92.2727 259.217 92.3778 259.612 92.5881C260.007 92.7955 260.301 93.0753 260.494 93.4276C260.688 93.777 260.784 94.1648 260.784 94.5909C260.784 94.9659 260.717 95.2756 260.584 95.5199C260.453 95.7642 260.28 95.9574 260.064 96.0994C259.851 96.2415 259.619 96.3466 259.369 96.4148V96.5C259.636 96.517 259.905 96.6108 260.175 96.7812C260.445 96.9517 260.67 97.196 260.852 97.5142C261.034 97.8324 261.125 98.2216 261.125 98.6818C261.125 99.1193 261.026 99.5128 260.827 99.8622C260.628 100.212 260.314 100.489 259.885 100.693C259.456 100.898 258.898 101 258.21 101H255.057ZM256.114 100.062H258.21C258.901 100.062 259.391 99.929 259.68 99.6619C259.973 99.392 260.119 99.0653 260.119 98.6818C260.119 98.3864 260.044 98.1136 259.893 97.8636C259.743 97.6108 259.528 97.4091 259.25 97.2585C258.972 97.1051 258.642 97.0284 258.261 97.0284H256.114V100.062ZM256.114 96.108H258.074C258.392 96.108 258.679 96.0455 258.935 95.9205C259.193 95.7955 259.398 95.6193 259.548 95.392C259.702 95.1648 259.778 94.8977 259.778 94.5909C259.778 94.2074 259.645 93.8821 259.378 93.6151C259.111 93.3452 258.688 93.2102 258.108 93.2102H256.114V96.108Z" fill="white"/>
<path d="M256.057 170V161.273H257.114V169.062H261.17V170H256.057Z" fill="white"/>
<path d="M255.057 234V225.273H258.006C258.688 225.273 259.247 225.389 259.685 225.622C260.122 225.852 260.446 226.169 260.656 226.572C260.866 226.976 260.972 227.435 260.972 227.949C260.972 228.463 260.866 228.919 260.656 229.317C260.446 229.714 260.124 230.027 259.689 230.254C259.254 230.479 258.699 230.591 258.023 230.591H255.636V229.636H257.989C258.455 229.636 258.83 229.568 259.114 229.432C259.401 229.295 259.608 229.102 259.736 228.852C259.866 228.599 259.932 228.298 259.932 227.949C259.932 227.599 259.866 227.294 259.736 227.033C259.605 226.771 259.396 226.57 259.109 226.428C258.822 226.283 258.443 226.21 257.972 226.21H256.114V234H255.057ZM259.165 230.08L261.312 234H260.085L257.972 230.08H259.165Z" fill="white"/>
</svg>
